<?xml version="1.0" encoding="UTF-8"?>
<svg id="Layer_2" data-name="Layer 2" xmlns="http://www.w3.org/2000/svg" viewBox="0 0 500 436.28">
  <defs>
    <style>
      .cls-1 {
        fill: #fff;
      }

      .cls-1, .cls-2 {
        stroke-width: 0px;
      }

      .cls-2 {
        fill: #7423c1;
      }
    </style>
  </defs>
  <g id="LOGO">
    <g>
      <g>
        <path class="cls-1" d="M311.36,124.14c-5.03,4.01-10.09,8.09-15.18,12.23-3.72,3.03-8.8,3.8-13.22,1.93-12.92-5.46-27.48-7.81-42.66-6.11-43.26,4.84-76.28,43.1-75.12,86.61.22,8.32,1.64,16.34,4.15,23.87,2.09,6.53,4.96,12.73,8.55,18.47,4.31,6.92,9.6,13.25,15.67,18.67-6.79,5.48-13.58,10.97-20.43,16.45-5.9,4.72-100.52,80.18-173.11,130.03,44.06-44.95,100.27-96.25,132.49-125.12,13.51-12.1,18.89-31.14,12.88-48.25-3.52-10.05-6.34-22.44-6.34-36.41,0-61.16,49.8-110.97,110.97-110.97,22.65,0,43.73,6.85,61.36,18.6Z"/>
        <path class="cls-2" d="M360.97,216.5c0,61.16-49.8,110.97-110.97,110.97-22.65,0-43.73-6.85-61.36-18.6,5.11-4.09,10.21-8.19,15.27-12.28,3.73-3.02,8.78-3.74,13.19-1.87,12.69,5.37,26.92,7.73,41.86,6.19,39.07-4.03,71.01-35.5,75.34-74.54,1.4-12.65.09-24.88-3.63-36.03-1.23-3.88-2.75-7.63-4.53-11.22-1.89-3.83-6.95-4.75-10.15-1.92-18.92,16.77-38.48,33.35-57.65,49.3-16.32,13.58-32.77,27.15-49.41,40.73-6.46-5.29-11.95-11.75-15.99-19.06,16.25-14.1,32.51-27.94,48.63-41.64,16.32-13.58,32.83-27.15,49.48-40.73,5.09-4.18,10.25-8.42,15.41-12.6,6.79-5.48,13.58-10.97,20.43-16.45,5.9-4.72,100.43-80.27,173.11-130.03-44.06,45.02-100.27,96.32-132.48,125.17-13.5,12.09-18.88,31.11-12.89,48.22,3.52,10.05,6.34,22.44,6.34,36.4Z"/>
      </g>
      <g>
        <path class="cls-1" d="M95.95,120.4l-20.72,47.45-37.5-16.38,20.72-47.45,2.75,1.2-19.31,44.21,14.3,6.24,18.83-43.11,2.47,1.08-18.83,43.11,15.23,6.65,19.31-44.21,2.75,1.2Z"/>
        <path class="cls-1" d="M123.7,72.37c1.48,1.29,2.49,2.67,3.03,4.15.54,1.48.54,3.21-.02,5.19-.56,1.98-1.74,4.3-3.54,6.94-1.8,2.65-4.29,5.8-7.47,9.45-1.92,2.2-4.04,4.47-6.35,6.8-2.32,2.33-4.64,4.5-6.95,6.52s-4.38,3.74-6.21,5.17l-1.95-2.42c1.43-1.09,3-2.38,4.73-3.88,1.72-1.49,3.48-3.08,5.26-4.77,1.78-1.68,3.5-3.37,5.16-5.06,1.65-1.69,3.12-3.27,4.41-4.75,2.86-3.29,5.07-6.05,6.61-8.28,1.55-2.23,2.56-4.12,3.05-5.66.49-1.54.53-2.84.13-3.9-.4-1.06-1.13-2.05-2.18-2.97-1.54-1.34-2.93-2.05-4.19-2.13-1.25-.08-2.57.3-3.94,1.14-1.37.85-2.88,2.04-4.54,3.57l-17.58,16.36c-2.13,1.96-4.15,3.56-6.05,4.8-1.9,1.24-3.75,1.87-5.55,1.89-1.8.03-3.63-.78-5.5-2.4-1.96-1.71-3.07-3.64-3.31-5.79-.25-2.15.52-4.77,2.31-7.86,1.79-3.09,4.66-6.91,8.63-11.46,1.37-1.57,2.86-3.18,4.49-4.84,1.63-1.66,3.31-3.31,5.04-4.96,1.73-1.65,3.42-3.2,5.08-4.65,1.66-1.45,3.2-2.69,4.63-3.72l1.86,2.34c-1.4,1.06-2.95,2.34-4.65,3.83-1.7,1.49-3.42,3.08-5.18,4.76-1.75,1.68-3.44,3.34-5.05,4.98-1.62,1.64-3.04,3.17-4.28,4.59-2.73,3.14-4.85,5.79-6.36,7.95-1.51,2.16-2.5,3.99-2.98,5.48-.48,1.49-.52,2.77-.14,3.82.38,1.05,1.09,2.02,2.12,2.92,1.33,1.16,2.63,1.72,3.9,1.69,1.27-.03,2.59-.53,3.96-1.49s2.92-2.22,4.65-3.79l16.94-15.72c1.6-1.47,3.13-2.78,4.6-3.91,1.47-1.14,2.91-1.94,4.34-2.43,1.43-.48,2.88-.54,4.37-.17,1.49.37,3.04,1.26,4.67,2.67Z"/>
        <path class="cls-1" d="M131.57,34.15l-21.08,13.49-1.68-2.63,45.08-28.85,1.68,2.63-21.02,13.45,20.37,31.84-2.98,1.91-20.37-31.84Z"/>
        <path class="cls-1" d="M210.29,41.21l-32.89,8.47-10.21-39.63L200.08,1.58C204.15.54,207.76,0,210.92,0s5.9.52,8.22,1.6,4.27,2.75,5.85,5.03c1.58,2.28,2.82,5.16,3.72,8.65.9,3.49,1.21,6.61.93,9.37-.28,2.76-1.17,5.18-2.68,7.26-1.51,2.08-3.64,3.89-6.41,5.43-2.76,1.54-6.18,2.83-10.25,3.88ZM171.4,12.19l8.65,33.58,29.28-7.54c4.92-1.27,8.71-2.87,11.37-4.82s4.33-4.33,5.01-7.15c.68-2.82.51-6.18-.49-10.1-1.03-3.99-2.52-7.03-4.46-9.14-1.95-2.1-4.55-3.34-7.81-3.72-3.26-.38-7.35.07-12.26,1.33l-29.28,7.54Z"/>
      </g>
      <g>
        <path class="cls-1" d="M322.05,395.79c-.71-2.58-2.13-4.31-4.28-5.17-2.14-.86-4.95-1.09-8.43-.68-3.47.41-7.55,1.26-12.21,2.54-3.05.83-5.94,1.74-8.68,2.72-2.74.98-5.31,1.96-7.71,2.95-2.4.99-4.65,1.98-6.75,2.97l-1.1-2.87c2.19-1.1,4.63-2.19,7.31-3.28,2.69-1.09,5.4-2.11,8.15-3.07,2.74-.96,5.29-1.76,7.65-2.4,5.63-1.54,10.48-2.47,14.54-2.8,4.06-.32,7.33.12,9.82,1.32,2.49,1.21,4.16,3.37,5.01,6.5.67,2.43.6,4.58-.19,6.46-.79,1.88-2.14,3.66-4.04,5.37-1.9,1.7-4.18,3.54-6.83,5.51l-27.34,21.23-.39-.52c1.02-.36,2.19-.76,3.5-1.21,1.31-.44,2.7-.89,4.17-1.36,1.47-.46,2.93-.92,4.39-1.36,1.46-.44,2.8-.83,4.03-1.17l29.57-8.1.84,3.07-50.52,13.83-.78-2.84,32.79-25.21c2.04-1.64,3.69-3.1,4.96-4.38,1.27-1.28,2.11-2.55,2.54-3.8.42-1.26.42-2.68-.01-4.26Z"/>
        <path class="cls-1" d="M388.06,364.38c2.15,3.13,3.41,6.21,3.77,9.24.36,3.03-.08,5.98-1.34,8.86-1.25,2.88-3.19,5.69-5.81,8.44-2.62,2.75-5.8,5.41-9.52,7.97-3.76,2.58-7.39,4.61-10.9,6.07-3.51,1.46-6.82,2.26-9.93,2.39s-6.03-.51-8.75-1.92c-2.72-1.41-5.15-3.68-7.3-6.81-2.17-3.16-3.43-6.26-3.76-9.28-.33-3.02.12-5.97,1.35-8.83,1.24-2.86,3.16-5.67,5.79-8.42,2.62-2.75,5.81-5.42,9.57-8,3.72-2.56,7.34-4.57,10.85-6.04,3.51-1.46,6.83-2.27,9.96-2.41s6.04.49,8.73,1.9c2.69,1.4,5.12,3.69,7.3,6.85ZM385.14,366.39c-2.52-3.66-5.41-5.94-8.68-6.85-3.27-.91-6.87-.72-10.79.57-3.92,1.29-8.14,3.48-12.65,6.59-4.48,3.08-8.04,6.24-10.68,9.46-2.64,3.22-4.12,6.52-4.44,9.9-.32,3.38.77,6.9,3.29,10.55,2.52,3.66,5.41,5.94,8.68,6.85,3.27.91,6.88.7,10.83-.61,3.95-1.31,8.17-3.51,12.65-6.59,4.51-3.1,8.08-6.26,10.68-9.46s4.07-6.49,4.39-9.87c.32-3.38-.77-6.9-3.29-10.55Z"/>
        <path class="cls-1" d="M391.96,331.59l-6.19,17.51-2.51-2.14,5.44-16.26,3.26.89ZM422,354.7l-2.3,2.69-25.06-21.38c-.52-.44-1.03-.92-1.54-1.43-.51-.51-.99-.97-1.43-1.38s-.93-.88-1.45-1.44l-1.53-1.07,2.18-2.56,31.13,26.56Z"/>
        <path class="cls-1" d="M429.94,302.24c-2.52,5.18-4.35,10.02-5.49,14.51-1.14,4.49-1.96,8.6-2.48,12.31l-2.45-.72c.09-1.38.38-3.42.87-6.11.49-2.7,1.28-5.87,2.39-9.51,1.1-3.64,2.67-7.55,4.7-11.73,1.05-2.16,2.16-4.32,3.32-6.49,1.17-2.17,2.43-4.18,3.8-6.03,1.37-1.85,2.83-3.36,4.4-4.53,1.57-1.17,3.28-1.87,5.13-2.11,1.85-.23,3.85.17,6.01,1.22,1.98.96,3.42,2.2,4.33,3.71.91,1.51,1.39,3.23,1.43,5.16.04,1.93-.23,3.99-.8,6.18-.58,2.19-1.36,4.47-2.35,6.83-.99,2.36-2.08,4.75-3.25,7.16-2.33,4.78-4.7,8.66-7.12,11.62-2.42,2.96-4.93,5.11-7.54,6.44-2.61,1.34-5.36,1.91-8.27,1.72-2.91-.19-6.02-1.09-9.33-2.7-3.02-1.47-5.38-3.2-7.08-5.21-1.69-2-2.82-4.21-3.39-6.62-.56-2.41-.7-4.95-.39-7.63.3-2.68.95-5.44,1.93-8.3.99-2.85,2.19-5.74,3.61-8.65,1.12-2.3,2.42-4.66,3.91-7.07,1.48-2.41,3.02-4.72,4.61-6.93,1.58-2.21,3.09-4.14,4.52-5.81l2.54,2.04c-1.45,1.7-2.92,3.56-4.42,5.59-1.5,2.03-2.95,4.18-4.37,6.45-1.41,2.27-2.72,4.65-3.93,7.13-1.75,3.6-3.11,6.99-4.08,10.19-.97,3.2-1.4,6.15-1.27,8.86.13,2.71.93,5.15,2.42,7.31,1.48,2.17,3.81,4.02,6.97,5.56,2.81,1.36,5.43,2.16,7.88,2.39,2.45.23,4.79-.21,7.02-1.33,2.23-1.12,4.43-3.02,6.58-5.71,2.15-2.69,4.3-6.25,6.46-10.67,1.66-3.42,3-6.48,4-9.2,1.01-2.71,1.63-5.07,1.87-7.06s.01-3.69-.67-5.06c-.69-1.38-1.89-2.49-3.62-3.33-1.73-.84-3.34-1.12-4.85-.86-1.51.27-2.97,1.09-4.4,2.46-1.42,1.38-2.88,3.27-4.36,5.68-1.48,2.41-3.08,5.37-4.77,8.86Z"/>
      </g>
    </g>
  </g>
</svg>