<?xml version="1.0" encoding="UTF-8"?>
<svg id="Layer_2" data-name="Layer 2" xmlns="http://www.w3.org/2000/svg" viewBox="0 0 739.6 187.32">
  <defs>
    <style>
      .cls-1 {
        fill: #fff;
      }

      .cls-1, .cls-2 {
        stroke-width: 0px;
      }

      .cls-2 {
        fill: #7423c1;
      }
    </style>
  </defs>
  <g id="LOGO">
    <g>
      <g>
        <path class="cls-1" d="M132.94,26.64c15.78,0,31.21,2.7,45.73,7.75,1.88.65,3.95.34,5.52-.88,2.73-2.13,5.45-4.24,8.17-6.31-18.53-7.93-38.73-12.21-59.42-12.21C79.03,14.98,28.73,44,1.69,90.75l-1.69,2.91,1.69,2.91c20.95,36.17,53.02,53.96,55.86,55.6-13.21,12.27-18.43,16.85-36.22,35.14,16.24-11.16,19.04-13.25,43.22-31.39,3.5-2.62,6.94-5.3,10.37-7.96,10.24-7.9,20.71-16.35,23.66-18.71,3.06-2.45,6.12-4.9,9.15-7.37-2.71-2.39-5.07-5.22-6.99-8.31-1.6-2.56-2.88-5.33-3.82-8.25-6.95-21.73,7.58-46.56,31.58-49.32,6.81-.78,13.35.27,19.13,2.71,1.97.83,4.24.49,5.9-.86,2.27-1.84,4.53-3.65,6.77-5.46-7.84-5.25-17.25-8.31-27.36-8.31-33.31,0-53.55,29.67-48.92,57.68,2.3,13.93-2.01,28.14-12.49,37.61-1.67,1.51-3.31,3-4.89,4.44h-.03c-20.86-11.11-39.91-28.67-53.1-50.18C38.87,52.22,84.31,26.64,132.94,26.64Z"/>
        <path class="cls-2" d="M264.2,90.75c-20.38-35.27-53.01-53.98-55.86-55.63,12.44-11.51,24.57-23.23,36.22-35.12-14.54,9.97-28.97,20.49-43.22,31.36-3.47,2.65-6.94,5.3-10.37,7.98-14.79,11.53-29.29,23.21-32.81,26.05-4.7,3.79-43.36,36.05-50.68,42.4,1.81,3.26,4.23,6.15,7.11,8.51,7.08-5.78,38.28-32.13,47.9-40.3,1.41-1.2,3.6-.8,4.44.85,1.72,3.4,3.17,7.52,3.69,12.65,2.08,20.21-11.37,38.3-31.42,41.53-7.46,1.2-14.65.2-20.94-2.46-1.97-.83-4.23-.51-5.89.84-2.26,1.83-4.54,3.65-6.82,5.48,9.02,6.04,20.12,9.18,32.02,8.09,20.75-1.89,41.18-21.14,44.33-41.73.95-6.21.64-11.82-.27-16.66-2.58-13.65,2.65-27.63,12.98-36.92,1.59-1.43,3.15-2.84,4.65-4.2,20.69,10.68,39.9,28.65,53.1,50.18-25.32,41.44-70.76,67.03-119.42,67.03-15.79,0-31.21-2.7-45.76-7.75-1.87-.65-3.93-.34-5.5.87-2.7,2.1-5.42,4.21-8.16,6.3,18.53,7.96,38.7,12.24,59.42,12.24,53.94,0,104.24-29.03,131.25-75.77l1.66-2.91-1.66-2.91Z"/>
      </g>
      <g>
        <path class="cls-1" d="M313.29,72.24c0-2.62.46-4.95,1.39-7,.93-2.05,2.44-3.79,4.54-5.22,2.1-1.43,4.85-2.53,8.27-3.29,3.42-.76,7.63-1.13,12.64-1.13,2.55,0,5.06.11,7.52.33,2.46.22,4.87.52,7.23.9,2.36.38,4.65.82,6.85,1.32l-2.27,10.54c-1.89-.35-3.93-.69-6.12-1.02-2.19-.33-4.48-.61-6.85-.85-2.38-.24-4.81-.35-7.3-.35-2.8,0-5.07.11-6.81.33-1.73.22-3.06.56-3.97,1.02-.91.46-1.54,1.05-1.87,1.77-.33.73-.5,1.61-.5,2.65s.17,1.92.5,2.65c.33.73.95,1.32,1.87,1.8.91.47,2.24.82,3.97,1.04,1.73.22,4,.33,6.81.33,1.07,0,2.13-.02,3.17-.05,1.04-.03,2.08-.08,3.12-.14,1.04-.06,2.05-.13,3.03-.19v-5.77h13.24v14.46c-2.21.5-4.49.95-6.85,1.32s-4.77.68-7.23.9c-2.46.22-4.96.33-7.52.33-5.01,0-9.23-.38-12.64-1.13-3.42-.76-6.18-1.85-8.27-3.29-2.1-1.43-3.61-3.18-4.54-5.25-.93-2.06-1.39-4.4-1.39-7.02Z"/>
        <path class="cls-1" d="M400.03,71.05v-14.98h12.76v17.77c0,3.62-1,6.54-3,8.74-2,2.21-4.81,3.8-8.41,4.8-3.61.99-7.84,1.49-12.69,1.49s-9.04-.5-12.67-1.49c-3.62-.99-6.44-2.59-8.44-4.8-2-2.21-3-5.12-3-8.74v-17.77h12.76v14.98c0,1.83.39,3.25,1.16,4.25.77,1.01,1.99,1.71,3.66,2.1,1.67.39,3.84.59,6.52.59s4.89-.2,6.55-.59c1.65-.39,2.87-1.09,3.64-2.1.77-1.01,1.16-2.43,1.16-4.25Z"/>
        <path class="cls-1" d="M443.23,56.07l-.38,2.08-17.35,30.16h-15.31l19.81-32.24h13.24ZM456.04,82.97h-34.13v-8.74h34.13v8.74ZM451.36,88.31l-17.35-30.16-.19-2.08h13.24l19.81,32.24h-15.5Z"/>
        <path class="cls-1" d="M480.57,88.31h-12.76v-32.24h33.37c1.99,0,3.85.19,5.6.57,1.75.38,3.28,1.01,4.58,1.89,1.31.88,2.33,2.09,3.07,3.62.74,1.53,1.11,3.46,1.11,5.79s-.47,4.45-1.42,6.07c-.95,1.62-2.28,2.88-3.99,3.76-1.72.88-3.71,1.45-5.98,1.7l-.85.09,2.27,1.18,10.02,7.56h-15.93l-10.21-8.04h-8.89v8.04ZM480.57,66.94v3.88h19.19c.91,0,1.57-.14,1.96-.43.39-.28.59-.77.59-1.47,0-.82-.2-1.35-.59-1.61-.39-.25-1.05-.38-1.96-.38h-19.19Z"/>
        <path class="cls-1" d="M551.76,88.31h-33.56v-32.24h33.56c2.52,0,4.88.25,7.07.76,2.19.5,4.12,1.35,5.79,2.53,1.67,1.18,2.97,2.81,3.9,4.89.93,2.08,1.39,4.71,1.39,7.89s-.47,6.01-1.42,8.11c-.95,2.1-2.25,3.73-3.92,4.92-1.67,1.18-3.6,2-5.79,2.46-2.19.46-4.53.69-7.02.69ZM530.96,66.94v10.49h19.52c1.42,0,2.58-.1,3.5-.31.91-.2,1.59-.69,2.03-1.44.44-.76.66-1.94.66-3.55s-.22-2.73-.66-3.45c-.44-.72-1.12-1.2-2.03-1.42-.91-.22-2.08-.33-3.5-.33h-19.52Z"/>
        <path class="cls-1" d="M585.51,88.31h-12.76v-32.24h12.76v32.24Z"/>
        <path class="cls-1" d="M615.66,89.02c-6.43,0-11.65-.61-15.67-1.82-4.02-1.21-6.96-3.06-8.84-5.55-1.88-2.49-2.81-5.64-2.81-9.45s.94-7,2.81-9.48c1.87-2.47,4.82-4.32,8.84-5.53s9.24-1.82,15.67-1.82,11.69.61,15.69,1.82c4,1.21,6.94,3.06,8.82,5.53,1.87,2.47,2.81,5.63,2.81,9.48s-.94,6.96-2.81,9.45c-1.88,2.49-4.81,4.34-8.82,5.55-4,1.21-9.23,1.82-15.69,1.82ZM615.66,78.14c2.87,0,5.23-.09,7.09-.28,1.86-.19,3.32-.5,4.37-.95,1.06-.44,1.8-1.05,2.22-1.82.43-.77.64-1.74.64-2.91s-.21-2.18-.64-2.95c-.43-.77-1.17-1.38-2.22-1.82-1.06-.44-2.51-.75-4.37-.92-1.86-.17-4.22-.26-7.09-.26-3.81,0-6.78.17-8.89.5-2.11.33-3.59.93-4.42,1.8-.84.87-1.25,2.09-1.25,3.66s.42,2.8,1.25,3.66c.83.87,2.31,1.47,4.42,1.8,2.11.33,5.07.5,8.89.5ZM605.55,53.94v-6.38c.63-.31,1.42-.63,2.36-.95.95-.31,1.95-.47,3.03-.47,1.39,0,2.69.13,3.9.38,1.21.25,2.38.5,3.5.76,1.12.25,2.21.38,3.29.38s1.95-.15,2.62-.45c.68-.3,1.38-.65,2.1-1.06v6.67c-.5.35-1.12.66-1.84.95-.73.28-1.64.43-2.74.43-1.29,0-2.55-.13-3.76-.4-1.21-.27-2.42-.53-3.62-.78-1.2-.25-2.41-.38-3.64-.38s-2.14.13-2.93.38c-.79.25-1.54.57-2.27.95Z"/>
        <path class="cls-1" d="M689.88,88.31h-44.05v-32.24h44.05v9.93h-31.29v2.13h30.39v8.04h-30.39v2.22h31.29v9.93Z"/>
        <path class="cls-1" d="M738.28,78.62c0,1.77-.35,3.3-1.04,4.61-.69,1.31-1.84,2.39-3.43,3.24-1.59.85-3.75,1.48-6.48,1.89-2.73.41-6.12.61-10.19.61-2.84,0-5.73-.13-8.67-.38-2.95-.25-5.75-.58-8.41-.99-2.66-.41-5-.87-7.02-1.37l1.8-10.21c1.76.41,3.58.8,5.44,1.16,1.86.36,3.83.69,5.91.97s4.31.5,6.69.66c2.38.16,4.99.24,7.82.24,1.17,0,2.11,0,2.84-.02.72-.02,1.28-.05,1.68-.09.39-.05.66-.13.8-.24.14-.11.21-.26.21-.45,0-.25-.06-.42-.17-.5-.11-.08-.28-.13-.52-.17-.24-.03-.56-.05-.97-.05l-17.35-.57c-3.81-.13-6.79-.65-8.93-1.56-2.14-.91-3.65-2.13-4.51-3.66-.87-1.53-1.3-3.3-1.3-5.32,0-2.58.8-4.68,2.41-6.29s4.07-2.79,7.4-3.55c3.32-.76,7.52-1.13,12.6-1.13,1.35,0,2.92.06,4.7.17,1.78.11,3.66.27,5.63.47,1.97.21,3.93.46,5.88.76,1.95.3,3.78.64,5.48,1.02l-2.03,9.5c-1.39-.28-2.92-.54-4.61-.78-1.69-.24-3.49-.44-5.41-.61-1.92-.17-3.96-.31-6.1-.43-2.14-.11-4.35-.17-6.62-.17h-3.92c-.98,0-1.71.02-2.2.05-.49.03-.8.09-.95.19s-.21.25-.21.47.05.39.17.5c.11.11.31.17.61.19.3.02.73.04,1.3.07l17.35.61c2.62.09,4.83.43,6.64.99,1.81.57,3.28,1.33,4.42,2.29,1.13.96,1.96,2.1,2.48,3.43.52,1.32.78,2.81.78,4.44Z"/>
        <path class="cls-1" d="M337.3,140.49h-24.61v-29.66h24.61c3.04,0,5.68.28,7.89.85s4.04,1.44,5.48,2.61c1.44,1.17,2.5,2.7,3.2,4.59.7,1.88,1.04,4.13,1.04,6.74s-.35,4.86-1.04,6.74c-.7,1.88-1.76,3.42-3.2,4.61-1.43,1.19-3.26,2.07-5.48,2.65-2.22.58-4.85.87-7.89.87ZM315.25,113.09v25.14h21.92c3.68,0,6.63-.44,8.85-1.33,2.22-.88,3.82-2.25,4.81-4.11.99-1.85,1.48-4.25,1.48-7.18s-.49-5.39-1.48-7.22c-.99-1.83-2.59-3.17-4.81-4.02-2.22-.85-5.17-1.28-8.85-1.28h-21.92Z"/>
        <path class="cls-1" d="M379.79,110.83l.22.57-21.18,29.09h-3.13l21.66-29.66h2.44ZM394.79,132.92h-31.44v-2.04h31.44v2.04ZM399.23,140.49l-21.13-29.09.17-.57h2.44l21.66,29.66h-3.13Z"/>
        <path class="cls-1" d="M441.06,140.49l-21.27-29.66h3.13l19.83,27.53,19.83-27.53h3.09l-21.31,29.66h-3.3Z"/>
        <path class="cls-1" d="M507.81,140.49h-37.53v-29.66h37.53v2.17h-34.96v11.31h34.09v1.96h-34.09v12.05h34.96v2.17Z"/>
        <path class="cls-1" d="M517.21,140.49h-2.57v-29.66h27.57c1.8,0,3.37.19,4.72.57,1.35.38,2.46.93,3.33,1.67.87.74,1.51,1.7,1.94,2.87.42,1.17.63,2.53.63,4.07,0,2.03-.36,3.72-1.09,5.07-.72,1.35-1.85,2.36-3.37,3.04-1.52.68-3.47,1.04-5.85,1.07h-4.35l2.87,2.22,10.87,9.09h-3.39l-13.39-11.22h-17.92v11.22ZM517.21,113.09v14.05h25.05c2.81,0,4.84-.55,6.09-1.65,1.25-1.1,1.87-2.88,1.87-5.35s-.62-4.33-1.87-5.41c-1.25-1.09-3.28-1.63-6.09-1.63h-25.05Z"/>
        <path class="cls-1" d="M584.44,140.49h-24.61v-29.66h24.61c3.04,0,5.68.28,7.89.85s4.04,1.44,5.48,2.61c1.44,1.17,2.5,2.7,3.2,4.59.7,1.88,1.04,4.13,1.04,6.74s-.35,4.86-1.04,6.74c-.7,1.88-1.76,3.42-3.2,4.61-1.43,1.19-3.26,2.07-5.48,2.65-2.22.58-4.85.87-7.89.87ZM562.39,113.09v25.14h21.92c3.68,0,6.63-.44,8.85-1.33,2.22-.88,3.82-2.25,4.81-4.11.99-1.85,1.48-4.25,1.48-7.18s-.49-5.39-1.48-7.22c-.99-1.83-2.59-3.17-4.81-4.02-2.22-.85-5.17-1.28-8.85-1.28h-21.92Z"/>
        <path class="cls-1" d="M626.92,110.83l.22.57-21.18,29.09h-3.13l21.66-29.66h2.43ZM641.93,132.92h-31.44v-2.04h31.44v2.04ZM646.36,140.49l-21.13-29.09.17-.57h2.44l21.66,29.66h-3.13Z"/>
        <path class="cls-1" d="M678.02,140.49h-24.61v-29.66h24.61c3.04,0,5.67.28,7.89.85,2.22.57,4.04,1.44,5.48,2.61,1.43,1.17,2.5,2.7,3.2,4.59.7,1.88,1.04,4.13,1.04,6.74s-.35,4.86-1.04,6.74c-.7,1.88-1.76,3.42-3.2,4.61-1.44,1.19-3.26,2.07-5.48,2.65-2.22.58-4.85.87-7.89.87ZM655.97,113.09v25.14h21.92c3.68,0,6.63-.44,8.85-1.33,2.22-.88,3.82-2.25,4.81-4.11.99-1.85,1.48-4.25,1.48-7.18s-.49-5.39-1.48-7.22c-.99-1.83-2.59-3.17-4.81-4.02-2.22-.85-5.17-1.28-8.85-1.28h-21.92Z"/>
        <path class="cls-1" d="M739.6,140.49h-37.53v-29.66h37.53v2.17h-34.96v11.31h34.09v1.96h-34.09v12.05h34.96v2.17Z"/>
      </g>
    </g>
  </g>
</svg>