<svg width="200" height="200" viewBox="0 0 200 200" xmlns="http://www.w3.org/2000/svg">
  <circle cx="100" cy="100" r="90" fill="black"/>
  <image href="data:image/svg+xml;utf8,<?xml version="1.0" encoding="UTF-8"?>
<svg id="Layer_2" data-name="Layer 2" xmlns="http://www.w3.org/2000/svg" viewBox="0 0 500 352.3">
<defs>
<style>
.cls-1 {
        fill: #fff;
      }
      .cls-1, .cls-2 {
        stroke-width: 0px;
      }
      .cls-2 {
        fill: #7423c1;
      }
    </style>
  </defs>
  <g id="LOGO">
    <g>
      <path class="cls-1" d="M250.03,50.09c29.68,0,58.69,5.08,86,14.57,3.53,1.23,7.43.63,10.38-1.66,5.14-4,10.26-7.97,15.37-11.87-34.86-14.91-72.84-22.96-111.75-22.96C148.64,28.17,54.04,82.76,3.18,170.67l-3.18,5.48,3.18,5.48c39.4,68.02,99.71,101.48,105.06,104.57-24.84,23.08-34.66,31.7-68.12,66.1,30.54-20.98,35.81-24.92,81.28-59.03,6.58-4.93,13.04-9.97,19.51-14.96,19.26-14.85,38.95-30.75,44.5-35.19,5.75-4.6,11.51-9.21,17.21-13.87-5.1-4.49-9.54-9.81-13.15-15.62-3.01-4.82-5.43-10.03-7.18-15.51-13.08-40.86,14.25-87.57,59.4-92.75,12.81-1.47,25.11.5,35.97,5.1,3.71,1.57,7.97.92,11.1-1.61,4.27-3.46,8.52-6.87,12.74-10.27-14.74-9.87-32.45-15.62-51.46-15.62-62.65,0-100.71,55.8-92.01,108.47,4.33,26.21-3.78,52.93-23.49,70.73-3.14,2.83-6.23,5.64-9.19,8.35h-.05c-39.23-20.89-75.06-53.91-99.86-94.38C73.11,98.21,158.56,50.09,250.03,50.09Z"/>
      <path class="cls-2" d="M496.88,170.67c-38.33-66.34-99.7-101.53-105.06-104.63,23.4-21.65,46.2-43.68,68.12-66.04-27.35,18.74-54.48,38.53-81.28,58.97-6.52,4.99-13.04,9.97-19.51,15.02-27.82,21.69-55.09,43.65-61.71,49-8.83,7.13-81.54,67.8-95.31,79.74,3.4,6.14,7.95,11.56,13.37,16,13.32-10.86,72-60.42,90.08-75.79,2.66-2.26,6.77-1.51,8.35,1.61,3.24,6.39,5.95,14.15,6.95,23.79,3.92,38-21.38,72.02-59.1,78.11-14.03,2.27-27.55.38-39.37-4.63-3.71-1.57-7.95-.96-11.08,1.57-4.25,3.44-8.53,6.87-12.82,10.31,16.96,11.35,37.85,17.26,60.23,15.22,39.03-3.56,77.44-39.75,83.38-78.49,1.79-11.68,1.21-22.24-.51-31.34-4.84-25.67,4.98-51.96,24.41-69.43,2.98-2.68,5.93-5.34,8.75-7.9,38.92,20.09,75.04,53.88,99.86,94.38-47.63,77.93-133.07,126.06-224.6,126.06-29.69,0-58.7-5.08-86.06-14.58-3.52-1.22-7.4-.65-10.35,1.64-5.08,3.95-10.2,7.91-15.34,11.85,34.86,14.96,72.78,23.02,111.75,23.02,101.45,0,196.04-54.59,246.85-142.5l3.12-5.48-3.12-5.48Z"/>
    </g>
  </g>
</svg>" x="10" y="10" height="180" width="180"/>
</svg>