<?xml version="1.0" encoding="UTF-8"?>
<svg id="Layer_2" data-name="Layer 2" xmlns="http://www.w3.org/2000/svg" viewBox="0 0 700 405.48">
  <defs>
    <style>
      .cls-1 {
        fill: #fff;
      }

      .cls-1, .cls-2 {
        stroke-width: 0px;
      }

      .cls-2 {
        fill: #7423c1;
      }
    </style>
  </defs>
  <g id="LOGO">
    <g>
      <g>
        <path class="cls-1" d="M350.37,23.4c13.86,0,27.42,2.37,40.17,6.81,1.65.57,3.47.3,4.85-.78,2.4-1.87,4.79-3.72,7.18-5.54-16.28-6.96-34.03-10.73-52.2-10.73-47.36,0-91.55,25.5-115.31,66.57l-1.48,2.56,1.48,2.56c18.41,31.78,46.58,47.4,49.08,48.85-11.6,10.78-16.19,14.81-31.82,30.88,14.27-9.8,16.73-11.64,37.97-27.57,3.07-2.3,6.09-4.66,9.11-6.99,9-6.94,18.2-14.36,20.79-16.44,2.69-2.15,5.38-4.3,8.04-6.48-2.38-2.1-4.45-4.58-6.14-7.3-1.41-2.25-2.53-4.69-3.35-7.25-6.11-19.09,6.66-40.91,27.75-43.33,5.98-.69,11.73.23,16.81,2.38,1.73.73,3.72.43,5.18-.75,2-1.62,3.98-3.21,5.95-4.8-6.89-4.61-15.16-7.3-24.04-7.3-29.27,0-47.04,26.07-42.98,50.67,2.02,12.24-1.76,24.72-10.97,33.04-1.46,1.32-2.91,2.64-4.29,3.9h-.03c-18.33-9.76-35.06-25.18-46.65-44.09,22.27-36.41,62.19-58.89,104.92-58.89Z"/>
        <path class="cls-2" d="M465.68,79.73c-17.91-30.99-46.58-47.43-49.08-48.87,10.93-10.11,21.58-20.4,31.82-30.85-12.78,8.76-25.45,18-37.97,27.55-3.05,2.33-6.09,4.66-9.11,7.02-12.99,10.13-25.73,20.39-28.83,22.89-4.13,3.33-38.09,31.67-44.52,37.25,1.59,2.87,3.71,5.4,6.25,7.48,6.22-5.07,33.63-28.23,42.08-35.41,1.24-1.06,3.16-.7,3.9.75,1.52,2.98,2.78,6.61,3.25,11.11,1.83,17.75-9.99,33.64-27.61,36.49-6.55,1.06-12.87.18-18.39-2.16-1.73-.73-3.71-.45-5.17.74-1.98,1.61-3.99,3.21-5.99,4.81,7.92,5.3,17.68,8.06,28.14,7.11,18.23-1.66,36.17-18.57,38.95-36.66.84-5.46.56-10.39-.24-14.64-2.26-11.99,2.33-24.27,11.4-32.43,1.39-1.25,2.77-2.49,4.09-3.69,18.18,9.38,35.06,25.17,46.65,44.09-22.25,36.41-62.16,58.89-104.92,58.89-13.87,0-27.42-2.38-40.2-6.81-1.65-.57-3.46-.3-4.83.77-2.37,1.84-4.76,3.7-7.17,5.53,16.28,6.99,34,10.75,52.2,10.75,47.39,0,91.58-25.5,115.31-66.57l1.46-2.56-1.46-2.56Z"/>
      </g>
      <g>
        <path class="cls-1" d="M56.3,64.77h24.15v1.84h-21.96v10.19h21.24v1.76h-21.24v10.29h21.96v1.84h-24.15v-25.92Z"/>
        <path class="cls-1" d="M84.6,81.94h2.27c0,5.69,4.17,7.56,13.46,7.56,7.38,0,11.48-1.37,11.48-5.65,0-4.68-4.21-4.75-13.28-5.36-10.08-.72-12.92-2.48-12.92-7.52s4.43-6.88,13.43-6.88,13.89,2.88,13.93,9.03h-2.23c0-5.54-4.46-7.16-12.31-7.16-7.34,0-10.58,1.26-10.58,5,0,4.39,3.42,5.08,11.23,5.62,10.01.72,14.97,1.08,14.97,7.2s-5.33,7.63-14,7.63c-10.33,0-15.37-2.2-15.44-9.47Z"/>
        <path class="cls-1" d="M115.52,64.77h28.47v1.94h-13.14v23.97h-2.2v-23.97h-13.14v-1.94Z"/>
        <path class="cls-1" d="M148.5,64.77h15.3c7.92,0,13.82,5.54,13.82,12.96s-5.94,12.96-13.82,12.96h-15.3v-25.92ZM163.01,88.74c7.16,0,12.38-4.64,12.38-11.01s-5.22-11.01-12.38-11.01h-12.31v22.03h12.31Z"/>
      </g>
      <g>
        <path class="cls-1" d="M549.41,71.68c0-3.85-3.24-5.87-9-5.87-6.59,0-10.76,2.48-10.76,7.74h-2.23c.11-6.08,4.68-9.47,13.03-9.47,7.16,0,11.19,2.59,11.19,7.52,0,11.09-21.6,7.67-22.79,17.24h22.75v1.84h-25.16v-.83c0-12.17,22.96-8.42,22.96-18.18Z"/>
        <path class="cls-1" d="M556.75,77.69c0-8.21,4.72-13.64,12.85-13.64s12.89,5.47,12.89,13.64-4.75,13.71-12.89,13.71-12.85-5.47-12.85-13.71ZM580.22,77.69c0-7.2-4.03-11.66-10.62-11.66s-10.58,4.43-10.58,11.66,4.03,11.73,10.58,11.73,10.62-4.5,10.62-11.73Z"/>
        <path class="cls-1" d="M587.93,88.85h9.65v-22.06l-9.07,3.92-.58-1.73,9.75-4.21h2.09v24.08h9.61v1.84h-21.45v-1.84Z"/>
        <path class="cls-1" d="M613.67,79.38c0-10.22,4.72-15.3,13.39-15.3,3.2,0,6.41.43,10.65,1.4v1.87c-5.29-1.15-7.42-1.48-10.55-1.48-6.77,0-10.8,3.17-11.3,11.95,1.91-3.56,6.33-5.4,11.73-5.4,7.88,0,12.06,3.2,12.06,9,0,6.37-4.72,9.97-13,9.97s-12.99-4.21-12.99-12.02ZM637.46,81.51c0-4.82-3.38-7.31-10.19-7.31s-11.09,3.2-11.09,7.59,3.53,7.74,10.4,7.74,10.87-2.81,10.87-8.03Z"/>
      </g>
      <g>
        <path class="cls-1" d="M.99,293.56c0-4.29.76-8.11,2.29-11.47,1.52-3.36,4-6.21,7.44-8.56,3.44-2.35,7.96-4.15,13.56-5.39,5.61-1.24,12.52-1.86,20.73-1.86,4.19,0,8.29.18,12.32.54,4.03.36,7.98.85,11.86,1.47,3.88.62,7.62,1.34,11.24,2.17l-3.72,17.28c-3.1-.57-6.45-1.12-10.04-1.67-3.59-.54-7.34-1.01-11.24-1.39-3.9-.39-7.89-.58-11.97-.58-4.6,0-8.32.18-11.16.54-2.84.36-5.01.92-6.51,1.67-1.5.75-2.52,1.72-3.06,2.91-.54,1.19-.81,2.63-.81,4.34s.27,3.15.81,4.34c.54,1.19,1.56,2.17,3.06,2.95,1.5.78,3.67,1.34,6.51,1.7,2.84.36,6.56.54,11.16.54,1.76,0,3.49-.02,5.19-.08,1.71-.05,3.41-.13,5.12-.23,1.7-.1,3.36-.21,4.96-.31v-9.46h21.7v23.72c-3.62.83-7.36,1.55-11.24,2.17s-7.83,1.11-11.86,1.47c-4.03.36-8.14.54-12.32.54-8.22,0-15.13-.62-20.73-1.86-5.61-1.24-10.13-3.04-13.56-5.39-3.44-2.35-5.92-5.22-7.44-8.6-1.52-3.38-2.29-7.22-2.29-11.51Z"/>
        <path class="cls-1" d="M143.21,291.62v-24.57h20.93v29.14c0,5.94-1.64,10.72-4.92,14.34-3.28,3.62-7.88,6.24-13.8,7.87-5.92,1.63-12.85,2.44-20.81,2.44s-14.83-.81-20.77-2.44c-5.94-1.63-10.55-4.25-13.83-7.87-3.28-3.62-4.92-8.4-4.92-14.34v-29.14h20.93v24.57c0,3,.63,5.32,1.9,6.98,1.27,1.65,3.27,2.8,6.01,3.45,2.74.65,6.3.97,10.7.97s8.02-.32,10.73-.97c2.71-.65,4.7-1.79,5.97-3.45,1.27-1.65,1.9-3.98,1.9-6.98Z"/>
        <path class="cls-1" d="M214.05,267.05l-.62,3.41-28.44,49.45h-25.11l32.47-52.86h21.7ZM235.06,311.15h-55.96v-14.34h55.96v14.34ZM227.38,319.91l-28.44-49.45-.31-3.41h21.7l32.47,52.86h-25.42Z"/>
        <path class="cls-1" d="M275.28,319.91h-20.93v-52.86h54.72c3.26,0,6.32.31,9.18.93,2.87.62,5.37,1.65,7.52,3.1,2.14,1.45,3.82,3.42,5.04,5.93,1.21,2.51,1.82,5.67,1.82,9.49s-.78,7.3-2.33,9.96c-1.55,2.66-3.73,4.72-6.55,6.16-2.82,1.45-6.08,2.38-9.8,2.79l-1.39.16,3.72,1.94,16.43,12.4h-26.12l-16.74-13.18h-14.57v13.18ZM275.28,284.88v6.36h31.47c1.5,0,2.57-.23,3.22-.7.65-.46.97-1.27.97-2.4,0-1.34-.32-2.22-.97-2.64-.65-.41-1.72-.62-3.22-.62h-31.47Z"/>
        <path class="cls-1" d="M392,319.91h-55.03v-52.86h55.03c4.13,0,8,.41,11.59,1.24,3.59.83,6.75,2.21,9.49,4.15,2.74,1.94,4.87,4.61,6.39,8.02,1.52,3.41,2.29,7.73,2.29,12.94s-.78,9.86-2.33,13.29c-1.55,3.44-3.69,6.12-6.43,8.06-2.74,1.94-5.9,3.28-9.49,4.03-3.59.75-7.43,1.12-11.51,1.12ZM357.9,284.88v17.21h32.01c2.33,0,4.24-.17,5.74-.5,1.5-.34,2.61-1.12,3.33-2.36.72-1.24,1.09-3.18,1.09-5.81s-.36-4.47-1.09-5.66c-.72-1.19-1.83-1.96-3.33-2.33-1.5-.36-3.41-.54-5.74-.54h-32.01Z"/>
        <path class="cls-1" d="M447.34,319.91h-20.93v-52.86h20.93v52.86Z"/>
        <path class="cls-1" d="M496.79,321.07c-10.54,0-19.11-1-25.69-2.98-6.59-1.99-11.42-5.03-14.49-9.11-3.07-4.08-4.61-9.25-4.61-15.5s1.54-11.48,4.61-15.54c3.07-4.06,7.91-7.08,14.49-9.07,6.59-1.99,15.15-2.98,25.69-2.98s19.17,1,25.73,2.98c6.56,1.99,11.38,5.01,14.46,9.07,3.07,4.06,4.61,9.24,4.61,15.54s-1.54,11.42-4.61,15.5c-3.08,4.08-7.89,7.12-14.46,9.11-6.56,1.99-15.14,2.98-25.73,2.98ZM496.79,303.25c4.7,0,8.58-.16,11.63-.46,3.05-.31,5.44-.83,7.17-1.55,1.73-.72,2.95-1.72,3.64-2.98.7-1.27,1.05-2.85,1.05-4.77s-.35-3.58-1.05-4.84c-.7-1.27-1.91-2.26-3.64-2.98-1.73-.72-4.12-1.23-7.17-1.51-3.05-.28-6.92-.43-11.63-.43-6.25,0-11.11.27-14.57.81-3.46.54-5.88,1.53-7.25,2.95-1.37,1.42-2.05,3.42-2.05,6.01s.68,4.59,2.05,6.01c1.37,1.42,3.78,2.4,7.25,2.95,3.46.54,8.32.81,14.57.81ZM480.2,263.57v-10.46c1.03-.52,2.33-1.03,3.88-1.55,1.55-.52,3.2-.78,4.96-.78,2.27,0,4.4.21,6.39.62,1.99.41,3.9.83,5.74,1.24,1.83.41,3.63.62,5.39.62s3.19-.24,4.3-.74c1.11-.49,2.26-1.07,3.45-1.74v10.93c-.83.57-1.83,1.08-3.02,1.55-1.19.46-2.69.7-4.5.7-2.12,0-4.17-.22-6.16-.66-1.99-.44-3.97-.87-5.93-1.28-1.96-.41-3.95-.62-5.97-.62s-3.51.21-4.81.62c-1.29.41-2.53.93-3.72,1.55Z"/>
        <path class="cls-1" d="M618.47,319.91h-72.23v-52.86h72.23v16.28h-51.31v3.49h49.84v13.18h-49.84v3.64h51.31v16.28Z"/>
        <path class="cls-1" d="M697.84,304.02c0,2.89-.57,5.41-1.71,7.56-1.14,2.15-3.01,3.91-5.62,5.31-2.61,1.4-6.15,2.43-10.62,3.1-4.47.67-10.04,1.01-16.7,1.01-4.65,0-9.39-.21-14.22-.62-4.83-.41-9.43-.96-13.8-1.63-4.37-.67-8.2-1.42-11.51-2.25l2.95-16.74c2.89.67,5.86,1.31,8.91,1.9,3.05.59,6.28,1.12,9.69,1.59s7.06.83,10.97,1.09c3.9.26,8.18.39,12.83.39,1.91,0,3.46-.01,4.65-.04,1.19-.02,2.1-.08,2.75-.15.65-.08,1.09-.21,1.32-.39.23-.18.35-.43.35-.74,0-.41-.09-.68-.27-.81-.18-.13-.46-.22-.85-.27-.39-.05-.92-.08-1.59-.08l-28.44-.93c-6.25-.21-11.14-1.06-14.65-2.56-3.51-1.5-5.98-3.5-7.4-6.01-1.42-2.51-2.13-5.41-2.13-8.72,0-4.24,1.32-7.67,3.95-10.31,2.64-2.64,6.68-4.57,12.13-5.81,5.45-1.24,12.34-1.86,20.66-1.86,2.22,0,4.79.09,7.71.27,2.92.18,5.99.44,9.22.78,3.23.34,6.44.75,9.65,1.24,3.2.49,6.2,1.05,8.99,1.67l-3.33,15.58c-2.27-.47-4.79-.89-7.56-1.28-2.76-.39-5.72-.72-8.87-1.01-3.15-.28-6.49-.52-10-.7-3.52-.18-7.13-.27-10.85-.27h-6.43c-1.6,0-2.8.03-3.6.08-.8.05-1.32.16-1.55.31s-.35.41-.35.78.09.63.27.81c.18.18.52.28,1.01.31.49.03,1.2.07,2.13.12l28.44,1.01c4.29.15,7.92.7,10.89,1.63,2.97.93,5.39,2.18,7.25,3.76,1.86,1.58,3.22,3.45,4.07,5.62.85,2.17,1.28,4.6,1.28,7.29Z"/>
        <path class="cls-1" d="M40.36,405.48H0v-48.63h40.36c4.99,0,9.31.46,12.94,1.39s6.63,2.35,8.98,4.28c2.35,1.92,4.1,4.43,5.24,7.52,1.14,3.09,1.71,6.77,1.71,11.05s-.57,7.96-1.71,11.05c-1.14,3.09-2.89,5.61-5.24,7.56-2.35,1.95-5.35,3.4-8.98,4.35-3.64.95-7.95,1.43-12.94,1.43ZM4.21,360.56v41.21h35.94c6.04,0,10.87-.72,14.51-2.17,3.64-1.45,6.26-3.7,7.88-6.74,1.62-3.04,2.42-6.96,2.42-11.77s-.81-8.84-2.42-11.84c-1.62-2.99-4.24-5.19-7.88-6.6-3.64-1.4-8.47-2.1-14.51-2.1H4.21Z"/>
        <path class="cls-1" d="M110.02,356.85l.36.93-34.73,47.7h-5.13l35.51-48.63h3.99ZM134.62,393.07h-51.55v-3.35h51.55v3.35ZM141.9,405.48l-34.65-47.7.28-.93h3.99l35.51,48.63h-5.13Z"/>
        <path class="cls-1" d="M210.49,405.48l-34.87-48.63h5.13l32.52,45.14,32.51-45.14h5.06l-34.94,48.63h-5.42Z"/>
        <path class="cls-1" d="M319.95,405.48h-61.54v-48.63h61.54v3.57h-57.33v18.54h55.9v3.21h-55.9v19.75h57.33v3.56Z"/>
        <path class="cls-1" d="M335.35,405.48h-4.21v-48.63h45.21c2.95,0,5.53.31,7.74.93,2.21.62,4.03,1.53,5.45,2.75,1.43,1.21,2.48,2.78,3.17,4.71.69,1.92,1.03,4.15,1.03,6.67,0,3.33-.59,6.1-1.78,8.31-1.19,2.21-3.03,3.88-5.53,4.99-2.5,1.12-5.69,1.7-9.59,1.75h-7.13l4.71,3.64,17.83,14.9h-5.56l-21.96-18.4h-29.38v18.4ZM335.35,360.56v23.03h41.07c4.61,0,7.94-.9,9.98-2.71,2.04-1.81,3.07-4.73,3.07-8.77s-1.02-7.1-3.07-8.88c-2.04-1.78-5.37-2.67-9.98-2.67h-41.07Z"/>
        <path class="cls-1" d="M445.58,405.48h-40.36v-48.63h40.36c4.99,0,9.31.46,12.94,1.39s6.63,2.35,8.98,4.28c2.35,1.92,4.1,4.43,5.24,7.52,1.14,3.09,1.71,6.77,1.71,11.05s-.57,7.96-1.71,11.05c-1.14,3.09-2.89,5.61-5.24,7.56-2.35,1.95-5.35,3.4-8.98,4.35-3.64.95-7.95,1.43-12.94,1.43ZM409.43,360.56v41.21h35.94c6.04,0,10.87-.72,14.51-2.17,3.64-1.45,6.26-3.7,7.88-6.74,1.62-3.04,2.42-6.96,2.42-11.77s-.81-8.84-2.42-11.84c-1.62-2.99-4.24-5.19-7.88-6.6-3.64-1.4-8.47-2.1-14.51-2.1h-35.94Z"/>
        <path class="cls-1" d="M515.25,356.85l.36.93-34.73,47.7h-5.13l35.51-48.63h3.99ZM539.85,393.07h-51.55v-3.35h51.55v3.35ZM547.12,405.48l-34.65-47.7.29-.93h3.99l35.51,48.63h-5.13Z"/>
        <path class="cls-1" d="M599.03,405.48h-40.36v-48.63h40.36c4.99,0,9.31.46,12.94,1.39,3.64.93,6.63,2.35,8.98,4.28,2.35,1.92,4.1,4.43,5.24,7.52,1.14,3.09,1.71,6.77,1.71,11.05s-.57,7.96-1.71,11.05c-1.14,3.09-2.89,5.61-5.24,7.56-2.35,1.95-5.35,3.4-8.98,4.35-3.64.95-7.95,1.43-12.94,1.43ZM562.88,360.56v41.21h35.94c6.04,0,10.87-.72,14.51-2.17,3.64-1.45,6.26-3.7,7.88-6.74,1.62-3.04,2.42-6.96,2.42-11.77s-.81-8.84-2.42-11.84c-1.62-2.99-4.24-5.19-7.88-6.6-3.64-1.4-8.47-2.1-14.51-2.1h-35.94Z"/>
        <path class="cls-1" d="M700,405.48h-61.54v-48.63h61.54v3.57h-57.33v18.54h55.9v3.21h-55.9v19.75h57.33v3.56Z"/>
      </g>
    </g>
  </g>
</svg>