<?xml version="1.0" encoding="UTF-8"?>
<svg id="Layer_2" data-name="Layer 2" xmlns="http://www.w3.org/2000/svg" viewBox="0 0 500 352.3">
  <defs>
    <style>
      .cls-1 {
        fill: #fff;
      }

      .cls-1, .cls-2 {
        stroke-width: 0px;
      }

      .cls-2 {
        fill: #7423c1;
      }
    </style>
  </defs>
  <g id="LOGO">
    <g>
      <g>
        <path class="cls-1" d="M250.03,50.09c29.68,0,58.69,5.08,86,14.57,3.53,1.23,7.43.63,10.38-1.66,5.14-4,10.26-7.97,15.37-11.87-34.86-14.91-72.84-22.96-111.75-22.96C148.64,28.17,54.04,82.76,3.18,170.67l-3.18,5.48,3.18,5.48c39.4,68.02,99.71,101.48,105.06,104.57-24.84,23.08-34.66,31.7-68.12,66.1,30.54-20.98,35.81-24.92,81.28-59.03,6.58-4.93,13.04-9.97,19.51-14.96,19.26-14.85,38.95-30.75,44.5-35.19,5.75-4.6,11.51-9.21,17.21-13.87-5.1-4.49-9.54-9.81-13.15-15.62-3.01-4.82-5.43-10.03-7.18-15.51-13.08-40.86,14.25-87.57,59.4-92.75,12.81-1.47,25.11.5,35.97,5.1,3.71,1.57,7.97.92,11.1-1.61,4.27-3.46,8.52-6.87,12.74-10.27-14.74-9.87-32.45-15.62-51.46-15.62-62.65,0-100.71,55.8-92.01,108.47,4.33,26.21-3.78,52.93-23.49,70.73-3.14,2.83-6.23,5.64-9.19,8.35h-.05c-39.23-20.89-75.06-53.91-99.86-94.38C73.11,98.21,158.56,50.09,250.03,50.09Z"/>
        <path class="cls-2" d="M496.88,170.67c-38.33-66.34-99.7-101.53-105.06-104.63,23.4-21.65,46.2-43.68,68.12-66.04-27.35,18.74-54.48,38.53-81.28,58.97-6.52,4.99-13.04,9.97-19.51,15.02-27.82,21.69-55.09,43.65-61.71,49-8.83,7.13-81.54,67.8-95.31,79.74,3.4,6.14,7.95,11.56,13.37,16,13.32-10.86,72-60.42,90.08-75.79,2.66-2.26,6.77-1.51,8.35,1.61,3.24,6.39,5.95,14.15,6.95,23.79,3.92,38-21.38,72.02-59.1,78.11-14.03,2.27-27.55.38-39.37-4.63-3.71-1.57-7.95-.96-11.08,1.57-4.25,3.44-8.53,6.87-12.82,10.31,16.96,11.35,37.85,17.26,60.23,15.22,39.03-3.56,77.44-39.75,83.38-78.49,1.79-11.68,1.21-22.24-.51-31.34-4.84-25.67,4.98-51.96,24.41-69.43,2.98-2.68,5.93-5.34,8.75-7.9,38.92,20.09,75.04,53.88,99.86,94.38-47.63,77.93-133.07,126.06-224.6,126.06-29.69,0-58.7-5.08-86.06-14.58-3.52-1.22-7.4-.65-10.35,1.64-5.08,3.95-10.2,7.91-15.34,11.85,34.86,14.96,72.78,23.02,111.75,23.02,101.45,0,196.04-54.59,246.85-142.5l3.12-5.48-3.12-5.48Z"/>
      </g>
      <g>
        <path class="cls-1" d="M52.36,78.91l-23.79,19.98-15.79-18.8,23.79-19.98,1.16,1.38-22.16,18.62,6.02,7.17,21.61-18.15,1.04,1.24-21.61,18.15,6.41,7.64,22.16-18.62,1.16,1.38Z"/>
        <path class="cls-1" d="M77.76,54.11c.66.98,1.03,1.93,1.11,2.87.08.94-.19,1.94-.82,3-.63,1.06-1.67,2.22-3.13,3.48-1.45,1.26-3.38,2.7-5.79,4.32-1.45.98-3.03,1.97-4.74,2.96-1.71.99-3.38,1.89-5.04,2.7-1.65.81-3.12,1.49-4.4,2.04l-.76-1.7c1-.41,2.11-.92,3.34-1.52s2.49-1.25,3.79-1.95c1.29-.7,2.55-1.41,3.77-2.13,1.22-.72,2.32-1.41,3.29-2.07,2.17-1.46,3.87-2.72,5.12-3.78,1.24-1.06,2.12-1.99,2.65-2.81.52-.81.75-1.56.68-2.24-.07-.68-.34-1.37-.81-2.06-.68-1.01-1.38-1.64-2.1-1.89-.71-.24-1.53-.22-2.46.05-.93.28-1.99.73-3.18,1.37l-12.72,6.76c-1.54.81-2.96,1.42-4.25,1.85-1.29.42-2.46.5-3.51.24-1.05-.26-1.99-1.01-2.82-2.25-.87-1.29-1.21-2.58-1.02-3.87s1.04-2.68,2.55-4.2c1.51-1.51,3.77-3.28,6.78-5.31,1.04-.7,2.15-1.4,3.35-2.11,1.2-.71,2.43-1.41,3.69-2.1,1.26-.69,2.48-1.32,3.66-1.91,1.18-.58,2.27-1.06,3.26-1.44l.72,1.64c-.98.4-2.07.9-3.29,1.5-1.21.6-2.46,1.26-3.74,1.96-1.28.7-2.51,1.41-3.7,2.11-1.19.7-2.25,1.37-3.19,2-2.07,1.4-3.71,2.6-4.92,3.62-1.21,1.02-2.07,1.92-2.58,2.72-.51.79-.73,1.52-.67,2.19.06.67.32,1.34.78,2.02.59.88,1.26,1.4,2,1.58.74.18,1.58.1,2.53-.25.94-.34,2.03-.84,3.28-1.48l12.26-6.49c1.16-.61,2.25-1.12,3.27-1.56s1.99-.68,2.89-.73c.9-.06,1.75.13,2.56.58.8.44,1.57,1.2,2.29,2.27Z"/>
        <path class="cls-1" d="M85.12,31.26l-13.23,7.1-.88-1.65,28.3-15.18.88,1.65-13.2,7.08,10.72,19.99-1.87,1-10.72-19.99Z"/>
        <path class="cls-1" d="M132.79,34.14l-18.92,7.56-9.12-22.8,18.92-7.56c2.34-.94,4.45-1.53,6.33-1.77,1.88-.25,3.55-.14,5.01.32s2.75,1.31,3.87,2.54c1.11,1.23,2.07,2.85,2.87,4.86.8,2.01,1.23,3.84,1.27,5.5.04,1.66-.3,3.17-1.04,4.53-.74,1.35-1.87,2.6-3.4,3.72-1.53,1.13-3.46,2.16-5.8,3.09ZM107.42,19.86l7.72,19.32,16.85-6.74c2.83-1.13,4.96-2.38,6.39-3.74,1.43-1.36,2.24-2.91,2.43-4.64.19-1.73-.17-3.72-1.07-5.97-.92-2.29-2.04-3.99-3.36-5.09-1.32-1.1-2.96-1.64-4.93-1.62s-4.37.6-7.2,1.73l-16.85,6.74Z"/>
      </g>
      <g>
        <path class="cls-1" d="M387.07,318.07c-.61-1.49-1.58-2.42-2.92-2.78s-3.03-.3-5.07.2c-2.04.49-4.41,1.29-7.1,2.38-1.76.71-3.42,1.46-4.98,2.24s-3.02,1.55-4.38,2.31c-1.36.76-2.63,1.51-3.81,2.25l-.86-1.63c1.22-.81,2.6-1.63,4.12-2.47,1.52-.84,3.07-1.64,4.64-2.41,1.57-.77,3.03-1.43,4.38-1.98,3.25-1.32,6.07-2.22,8.46-2.7,2.39-.48,4.38-.45,5.94.09,1.57.54,2.72,1.71,3.45,3.51.57,1.4.69,2.69.35,3.86-.34,1.17-1.01,2.34-2.02,3.48-1.01,1.15-2.23,2.41-3.67,3.77l-14.78,14.6-.27-.28c.58-.29,1.25-.61,2-.97.75-.36,1.54-.72,2.39-1.11.84-.38,1.68-.75,2.52-1.12s1.61-.69,2.32-.98l17.04-6.93.72,1.77-29.11,11.84-.67-1.63,17.73-17.36c1.1-1.12,1.98-2.11,2.64-2.96.66-.85,1.08-1.67,1.24-2.45.16-.78.06-1.62-.31-2.54Z"/>
        <path class="cls-1" d="M428.64,301.57c1.1,2,1.67,3.91,1.71,5.74s-.4,3.57-1.32,5.21c-.92,1.64-2.24,3.21-3.96,4.7s-3.78,2.89-6.15,4.2c-2.39,1.32-4.68,2.32-6.86,2.99s-4.2.95-6.07.85c-1.87-.1-3.57-.66-5.11-1.66s-2.86-2.5-3.96-4.49c-1.11-2.02-1.68-3.94-1.7-5.76-.02-1.83.42-3.56,1.33-5.2.91-1.64,2.22-3.2,3.95-4.69,1.73-1.49,3.79-2.9,6.18-4.22,2.37-1.31,4.65-2.3,6.83-2.97s4.21-.96,6.09-.86,3.58.65,5.1,1.64c1.52,1,2.84,2.5,3.96,4.52ZM426.78,302.59c-1.29-2.33-2.88-3.86-4.78-4.6-1.9-.73-4.06-.83-6.47-.29-2.42.54-5.06,1.61-7.94,3.2-2.86,1.58-5.17,3.25-6.93,5.02-1.76,1.77-2.84,3.65-3.23,5.65-.39,2,.06,4.16,1.35,6.5,1.29,2.33,2.88,3.86,4.78,4.6,1.9.73,4.07.82,6.5.27,2.44-.55,5.08-1.62,7.94-3.2,2.88-1.59,5.19-3.26,6.93-5.02,1.74-1.76,2.81-3.64,3.2-5.63s-.06-4.16-1.35-6.5Z"/>
        <path class="cls-1" d="M436.09,283.61l-6.35,9.16-1.11-1.64,5.72-8.55,1.75,1.03ZM449.82,301.74l-1.76,1.2-11.12-16.34c-.23-.34-.45-.69-.66-1.07-.21-.38-.42-.72-.61-1.02-.19-.3-.4-.66-.61-1.06l-.72-.86,1.67-1.13,13.82,20.3Z"/>
        <path class="cls-1" d="M464.52,274.61c-2.68,2.19-4.89,4.36-6.64,6.52-1.75,2.16-3.23,4.19-4.45,6.08l-1.15-1.01c.4-.73,1.07-1.76,2.01-3.11.95-1.35,2.18-2.87,3.7-4.58,1.52-1.71,3.36-3.44,5.51-5.2,1.11-.91,2.26-1.81,3.44-2.7,1.18-.89,2.38-1.66,3.58-2.33,1.21-.66,2.39-1.12,3.54-1.36,1.15-.24,2.26-.2,3.32.14s2.05,1.06,2.97,2.18c.83,1.02,1.31,2.06,1.43,3.11.12,1.05-.06,2.11-.52,3.17-.46,1.06-1.13,2.12-1.99,3.16-.86,1.05-1.87,2.09-3,3.13-1.14,1.04-2.33,2.07-3.57,3.08-2.47,2.02-4.74,3.53-6.8,4.54-2.06,1-3.97,1.54-5.73,1.61-1.75.07-3.4-.31-4.94-1.15-1.54-.84-3-2.11-4.4-3.82-1.28-1.56-2.12-3.1-2.54-4.62-.42-1.52-.48-3-.18-4.46.3-1.45.87-2.87,1.71-4.25.84-1.38,1.88-2.73,3.14-4.03s2.64-2.58,4.14-3.81c1.19-.97,2.49-1.93,3.91-2.87,1.42-.94,2.83-1.81,4.25-2.62,1.42-.8,2.73-1.48,3.92-2.02l.87,1.75c-1.22.56-2.49,1.21-3.81,1.93-1.33.73-2.66,1.53-4,2.41-1.34.88-2.65,1.84-3.94,2.89-1.86,1.52-3.45,3.03-4.79,4.52-1.33,1.5-2.31,3-2.92,4.5-.61,1.51-.79,3.04-.52,4.59.26,1.55,1.06,3.15,2.4,4.78,1.19,1.45,2.41,2.54,3.69,3.29,1.27.74,2.66,1.09,4.15,1.04s3.17-.53,5.02-1.45c1.85-.92,3.92-2.32,6.2-4.19,1.77-1.44,3.26-2.78,4.5-4s2.16-2.35,2.79-3.38c.63-1.03.94-2,.91-2.93-.03-.92-.4-1.83-1.13-2.72-.73-.89-1.54-1.45-2.43-1.69s-1.89-.16-3.02.23c-1.12.39-2.39,1.06-3.81,2-1.42.94-3.03,2.15-4.83,3.62Z"/>
      </g>
    </g>
  </g>
</svg>