<?xml version="1.0" encoding="UTF-8"?>
<svg id="Layer_2" data-name="Layer 2" xmlns="http://www.w3.org/2000/svg" viewBox="0 0 500 419.58">
  <defs>
    <style>
      .cls-1 {
        fill: #fff;
      }

      .cls-1, .cls-2 {
        stroke-width: 0px;
      }

      .cls-2 {
        fill: #7423c1;
      }
    </style>
  </defs>
  <g id="LOGO">
    <g>
      <path class="cls-1" d="M311.36,117.43c-5.03,4.01-10.09,8.09-15.18,12.23-3.72,3.03-8.8,3.8-13.22,1.93-12.92-5.46-27.48-7.81-42.66-6.11-43.26,4.84-76.28,43.1-75.12,86.61.22,8.32,1.64,16.34,4.15,23.87,2.09,6.53,4.96,12.73,8.55,18.47,4.31,6.92,9.6,13.25,15.67,18.67-6.79,5.48-13.58,10.97-20.43,16.45-5.9,4.72-100.52,80.18-173.11,130.03,44.06-44.95,100.27-96.25,132.49-125.12,13.51-12.1,18.89-31.14,12.88-48.25-3.52-10.05-6.34-22.44-6.34-36.41,0-61.16,49.8-110.97,110.97-110.97,22.65,0,43.73,6.85,61.36,18.6Z"/>
      <path class="cls-2" d="M360.97,209.79c0,61.16-49.8,110.97-110.97,110.97-22.65,0-43.73-6.85-61.36-18.6,5.11-4.09,10.21-8.19,15.27-12.28,3.73-3.02,8.78-3.74,13.19-1.87,12.69,5.37,26.92,7.73,41.86,6.19,39.07-4.03,71.01-35.5,75.34-74.54,1.4-12.65.09-24.88-3.63-36.03-1.23-3.88-2.75-7.63-4.53-11.22-1.89-3.83-6.95-4.75-10.15-1.92-18.92,16.77-38.48,33.35-57.65,49.3-16.32,13.58-32.77,27.15-49.41,40.73-6.46-5.29-11.95-11.75-15.99-19.06,16.25-14.1,32.51-27.94,48.63-41.64,16.32-13.58,32.83-27.15,49.48-40.73,5.09-4.18,10.25-8.42,15.41-12.6,6.79-5.48,13.58-10.97,20.43-16.45,5.9-4.72,100.43-80.27,173.11-130.03-44.06,45.02-100.27,96.32-132.48,125.17-13.5,12.09-18.88,31.11-12.89,48.22,3.52,10.05,6.34,22.44,6.34,36.4Z"/>
    </g>
  </g>
</svg>